<?xml version="1.0" encoding="iso-8859-1"?>
<!-- Uploaded to: SVG Repo, www.svgrepo.com, Generator: SVG Repo Mixer Tools -->
<svg version="1.1" id="Layer_1" xmlns="http://www.w3.org/2000/svg" xmlns:xlink="http://www.w3.org/1999/xlink" 
	 viewBox="0 0 512 512" xml:space="preserve">
<path style="fill:#FF8C78;" d="M448.401,94.063h-33.849v101.545h33.849c13.851,0,25.119-11.268,25.119-25.119v-51.307
	C473.52,105.331,462.252,94.063,448.401,94.063z"/>
<path style="fill:#509FE8;" d="M448.401,205.228h-33.849v101.545h33.849c13.851,0,25.119-11.268,25.119-25.119v-51.307
	C473.52,216.496,462.252,205.228,448.401,205.228z"/>
<path style="fill:#C4DF64;" d="M448.401,316.392h-33.849v101.545h33.849c13.851,0,25.119-11.268,25.119-25.119v-51.307
	C473.52,327.661,462.252,316.392,448.401,316.392z"/>
<rect x="414.549" y="94.063" style="fill:#DF7A6E;" width="26.366" height="101.545"/>
<rect x="414.549" y="205.228" style="fill:#4D8CCF;" width="26.366" height="101.545"/>
<rect x="414.549" y="316.392" style="fill:#AFCA62;" width="26.366" height="101.545"/>
<path style="fill:#68727E;" d="M397.094,0h-289.67v512h289.67c13.851,0,25.119-11.268,25.119-25.119V25.119
	C422.213,11.268,410.945,0,397.094,0z"/>
<path style="fill:#FFC44F;" d="M114.372,0H63.599C49.726,0,38.48,11.246,38.48,25.119v461.762C38.48,500.754,49.726,512,63.599,512
	h50.772V0z"/>
<path style="fill:#F7B14D;" d="M55.048,486.881V25.119C55.048,11.246,66.294,0,80.167,0H63.599C49.726,0,38.48,11.246,38.48,25.119
	v461.762C38.48,500.754,49.726,512,63.599,512h16.568C66.294,512,55.048,500.754,55.048,486.881z"/>
<g>
	<path style="fill:#D9DCDF;" d="M260.81,240.501c33.595,0,60.927-27.332,60.927-60.927s-27.332-60.927-60.927-60.927
		s-60.927,27.332-60.927,60.927S227.215,240.501,260.81,240.501z"/>
	<path style="fill:#D9DCDF;" d="M303.031,239.432H217.52c-23.281,0-42.221,18.941-42.221,42.221v94.063
		c0,4.428,3.588,8.017,8.017,8.017h153.921c4.428,0,8.017-3.588,8.017-8.017v-94.063
		C345.253,258.373,326.312,239.432,303.031,239.432z"/>
</g>
</svg>